<svg viewBox="0 0 18 18" fill="currentColor" xmlns="http://www.w3.org/2000/svg" aria-hidden="true">
  <path d="M10.6471 16H7.35294C7.18979 15.9979 7.03393 15.9321 6.91856 15.8167C6.80318 15.7014 6.73743 15.5455 6.73529 15.3824V9L2.32941 2.98C2.25977 2.88947 2.21737 2.78097 2.20716 2.66721C2.19695 2.55345 2.21936 2.43913 2.27176 2.33765C2.32426 2.23645 2.4034 2.15152 2.50064 2.09201C2.59788 2.03251 2.70953 2.00069 2.82353 2H15.1765C15.2905 2.00069 15.4021 2.03251 15.4994 2.09201C15.5966 2.15152 15.6758 2.23645 15.7283 2.33765C15.7807 2.43913 15.8031 2.55345 15.7929 2.66721C15.7826 2.78097 15.7402 2.88947 15.6706 2.98L11.2647 9V15.3824C11.2626 15.5455 11.1968 15.7014 11.0815 15.8167C10.9661 15.9321 10.8102 15.9979 10.6471 16ZM7.97061 14.7647H10.0294V8.79412C10.0288 8.66289 10.0723 8.53527 10.153 8.43177L13.9412 3.23529H4.05884L7.86355 8.43177C7.94422 8.53527 7.98773 8.66289 7.98708 8.79412L7.97061 14.7647Z" fill="currentColor"></path>
</svg>